# xmcd CD database file
#
# Track frame offsets:
#	150
#	17270
#	40015
#	61772
#	83995
#	101680
#	120637
#	140600
#	152360
#	172120
#
# Disc length: 2438 seconds
#
# Revision: 1
# Processed by: cddbd v1.5.1PL0 Copyright (c) Steve Scherf et al.
# Submitted via: CDex 1.51
#
DISCID=7309840a
DTITLE=日本コロムビア - ゴールデン・ヒットパレード／ウルトラマン 2001　disc1
DYEAR=2001
DGENRE=Pop
TTITLE0=Spirit
TTITLE1=ウルトラマンコスモス 〜君にできるなにか
TTITLE2=TAKE ME HIGHER(コロムビア・ヴァージョン)
TTITLE3=SHININ' ON LOVE
TTITLE4=ウルトラマンガイア！
TTITLE5=ウルトラマンダイナ
TTITLE6=ウルトラマンパワード
TTITLE7=ぼくらのグレート
TTITLE8=ウルトラマンネオス TYPE 2001
TTITLE9=ザ☆ウルトラマン
EXTD=YEAR: 2001
EXTT0=
EXTT1=
EXTT2=
EXTT3=
EXTT4=
EXTT5=
EXTT6=
EXTT7=
EXTT8=
EXTT9=
PLAYORDER=
